<?xml version="1.0" encoding="UTF-8" standalone="no"?>
<svg
   xmlns:dc="http://purl.org/dc/elements/1.1/"
   xmlns:cc="http://creativecommons.org/ns#"
   xmlns:rdf="http://www.w3.org/1999/02/22-rdf-syntax-ns#"
   xmlns:svg="http://www.w3.org/2000/svg"
   xmlns="http://www.w3.org/2000/svg"
   viewBox="0 0 600 389.33334"
   height="389.33334"
   width="600"
   xml:space="preserve"
   id="svg2"
   version="1.1"><metadata
     id="metadata8"><rdf:RDF><cc:Work
         rdf:about=""><dc:format>image/svg+xml</dc:format><dc:type
           rdf:resource="http://purl.org/dc/dcmitype/StillImage" /></cc:Work></rdf:RDF></metadata><defs
     id="defs6"><clipPath
       id="clipPath18"
       clipPathUnits="userSpaceOnUse"><path
         style="clip-rule:evenodd"
         id="path16"
         d="M 0,0 H 450.00003 V 291.60001 H 0 Z" /></clipPath><clipPath
       id="clipPath30"
       clipPathUnits="userSpaceOnUse"><path
         style="clip-rule:evenodd"
         id="path28"
         d="M 0,0 H 450.00003 V 291.60001 H 0 Z" /></clipPath></defs><g
     transform="matrix(1.3333333,0,0,1.3333333,0,6.4e-6)"
     id="g10"><g
       id="g12"><g
         clip-path="url(#clipPath18)"
         id="g14"><g
           transform="scale(0.72000003)"
           id="g20"><path
             id="path22"
             style="fill:#ffffff;fill-opacity:1;fill-rule:nonzero;stroke:none"
             d="M 0,0 H 625 V 405 H 0 Z" /></g></g></g><g
       id="g24"><g
         clip-path="url(#clipPath30)"
         id="g26"><g
           transform="matrix(0.72000003,0,0,0.72000003,0.36000001,0.36000001)"
           id="g32"><path
             id="path34"
             style="fill:none;stroke:#000000;stroke-width:1;stroke-linecap:butt;stroke-linejoin:miter;stroke-miterlimit:10;stroke-dasharray:none;stroke-opacity:1"
             d="M 392.87,39.57 405,65" /><path
             id="path36"
             style="fill:none;stroke:#000000;stroke-width:1;stroke-linecap:butt;stroke-linejoin:miter;stroke-miterlimit:10;stroke-dasharray:none;stroke-opacity:1"
             d="M 471.84,385.60999 444.16,357.82001" /><path
             id="path38"
             style="fill:none;stroke:#000000;stroke-width:1;stroke-linecap:butt;stroke-linejoin:miter;stroke-miterlimit:10;stroke-dasharray:none;stroke-opacity:1"
             d="m 382.56,384.67999 26.38,-26.78998" /><path
             id="path40"
             style="fill:none;stroke:#000000;stroke-width:1;stroke-linecap:butt;stroke-linejoin:miter;stroke-miterlimit:10;stroke-dasharray:none;stroke-opacity:1"
             d="m 519.29999,280 -70.34998,45.48001" /><path
             id="path42"
             style="fill:none;stroke:#000000;stroke-width:1;stroke-linecap:butt;stroke-linejoin:miter;stroke-miterlimit:10;stroke-dasharray:none;stroke-opacity:1"
             d="M 402.37,326.64001 318.10001,280" /><path
             id="path44"
             style="fill:#ffffff;fill-opacity:1;fill-rule:nonzero;stroke:none"
             d="m 383,310 h 87 v 60 h -87 z" /><path
             id="path46"
             style="fill:none;stroke:#000000;stroke-width:1;stroke-linecap:butt;stroke-linejoin:miter;stroke-miterlimit:10;stroke-dasharray:none;stroke-opacity:1"
             d="m 383,310 h 87 v 60 h -87 z" /><path
             id="path48"
             style="fill:#ffffff;fill-opacity:1;fill-rule:nonzero;stroke:none"
             d="M 45,65 H 150 V 95 H 45 Z" /><path
             id="path50"
             style="fill:none;stroke:#000000;stroke-width:1;stroke-linecap:butt;stroke-linejoin:miter;stroke-miterlimit:10;stroke-dasharray:none;stroke-opacity:1"
             d="M 45,65 H 150 V 95 H 45 Z" /></g><g
           transform="matrix(0.72000003,0,0,0.72000003,43.200001,53.280003)"
           id="g52"><text
             id="text56"
             style="font-variant:normal;font-weight:normal;font-size:12px;font-family:Helvetica;-inkscape-font-specification:Helvetica;writing-mode:lr-tb;fill:#000000;fill-opacity:1;fill-rule:nonzero;stroke:none"
             transform="translate(0.46875,11)"><tspan
               id="tspan54"
               y="0"
               x="0 7.3300781 14.003906 18 24.673828 31.347656 37.347656 44.021484 50.695312 57.369141 61.365234 68.039062">Fornecedores</tspan></text>
</g><g
           transform="matrix(0.72000003,0,0,0.72000003,0.36000001,0.36000001)"
           id="g58"><path
             id="path60"
             style="fill:#ffffff;fill-opacity:1;fill-rule:nonzero;stroke:none"
             d="m 30,117 c -2e-6,2.76141 -1.464468,5.11843 -4.3934,7.07105 C 22.677668,126.02367 19.142136,126.99999 15,127 10.857863,126.99999 7.3223295,126.02367 4.3933978,124.07105 1.4644659,122.11843 0,119.76141 0,117 0,114.23858 1.4644659,111.88155 4.3933978,109.92893 7.3223295,107.97631 10.857863,107 15,107 c 4.142136,0 7.677668,0.97631 10.6066,2.92893 2.928932,1.95262 4.393398,4.30965 4.3934,7.07107 z" /><path
             id="path62"
             style="fill:none;stroke:#000000;stroke-width:1;stroke-linecap:butt;stroke-linejoin:miter;stroke-miterlimit:10;stroke-dasharray:none;stroke-opacity:1"
             d="m 30,117 c -2e-6,2.76141 -1.464468,5.11843 -4.3934,7.07105 C 22.677668,126.02367 19.142136,126.99999 15,127 10.857863,126.99999 7.3223295,126.02367 4.3933978,124.07105 1.4644659,122.11843 0,119.76141 0,117 0,114.23858 1.4644659,111.88155 4.3933978,109.92893 7.3223295,107.97631 10.857863,107 15,107 c 4.142136,0 7.677668,0.97631 10.6066,2.92893 2.928932,1.95262 4.393398,4.30965 4.3934,7.07107 z" /></g><g
           transform="matrix(0.72000003,0,0,0.72000003,6.4800005,79.920006)"
           id="g64"><path
             id="path66"
             style="fill:#000000;fill-opacity:1;fill-rule:nonzero;stroke:none"
             d="m 0.5,12 h 12 v 1 h -12 z" /><text
             id="text70"
             style="font-variant:normal;font-weight:normal;font-size:12px;font-family:Helvetica;-inkscape-font-specification:Helvetica;writing-mode:lr-tb;fill:#000000;fill-opacity:1;fill-rule:nonzero;stroke:none"
             transform="translate(0.5,11)"><tspan
               id="tspan68"
               y="0"
               x="0 3.3339844">ID</tspan></text>
</g><g
           transform="matrix(0.72000003,0,0,0.72000003,0.36000001,0.36000001)"
           id="g72"><path
             id="path74"
             style="fill:#ffffff;fill-opacity:1;fill-rule:nonzero;stroke:none"
             d="m 85,117 c 0,2.76141 -2.440781,5.11843 -7.322334,7.07105 C 72.796112,126.02367 66.903557,126.99999 60,127 53.096439,126.99999 47.20388,126.02367 42.322327,124.07105 37.440773,122.11843 34.999996,119.76141 35,117 c -4e-6,-2.76142 2.440773,-5.11845 7.322327,-7.07107 C 47.20388,107.97631 53.096439,107 60,107 c 6.903557,0 12.796112,0.97631 17.677666,2.92893 C 82.559219,111.88155 85,114.23858 85,117 Z" /><path
             id="path76"
             style="fill:none;stroke:#000000;stroke-width:1;stroke-linecap:butt;stroke-linejoin:miter;stroke-miterlimit:10;stroke-dasharray:none;stroke-opacity:1"
             d="m 85,117 c 0,2.76141 -2.440781,5.11843 -7.322334,7.07105 C 72.796112,126.02367 66.903557,126.99999 60,127 53.096439,126.99999 47.20388,126.02367 42.322327,124.07105 37.440773,122.11843 34.999996,119.76141 35,117 c -4e-6,-2.76142 2.440773,-5.11845 7.322327,-7.07107 C 47.20388,107.97631 53.096439,107 60,107 c 6.903557,0 12.796112,0.97631 17.677666,2.92893 C 82.559219,111.88155 85,114.23858 85,117 Z" /></g><g
           transform="matrix(0.72000003,0,0,0.72000003,31.68,79.920006)"
           id="g78"><text
             id="text82"
             style="font-variant:normal;font-weight:normal;font-size:12px;font-family:Helvetica;-inkscape-font-specification:Helvetica;writing-mode:lr-tb;fill:#000000;fill-opacity:1;fill-rule:nonzero;stroke:none"
             transform="translate(0.328125,11)"><tspan
               id="tspan80"
               y="0"
               x="0 8.6660156 17.332031 25.335938">CNPJ</tspan></text>
</g><g
           transform="matrix(0.72000003,0,0,0.72000003,0.36000001,0.36000001)"
           id="g84"><path
             id="path86"
             style="fill:#ffffff;fill-opacity:1;fill-rule:nonzero;stroke:none"
             d="m 145,117 c 0,2.76141 -2.44078,5.11843 -7.32234,7.07105 -4.88155,1.95262 -10.7741,2.92894 -17.67766,2.92895 -6.90356,-1e-5 -12.79613,-0.97633 -17.67768,-2.92895 C 97.440765,122.11843 94.999992,119.76141 95,117 c -8e-6,-2.76142 2.440765,-5.11845 7.32232,-7.07107 C 107.20387,107.97631 113.09644,107 120,107 c 6.90356,0 12.79611,0.97631 17.67766,2.92893 C 142.55922,111.88155 145,114.23858 145,117 Z" /><path
             id="path88"
             style="fill:none;stroke:#000000;stroke-width:1;stroke-linecap:butt;stroke-linejoin:miter;stroke-miterlimit:10;stroke-dasharray:none;stroke-opacity:1"
             d="m 145,117 c 0,2.76141 -2.44078,5.11843 -7.32234,7.07105 -4.88155,1.95262 -10.7741,2.92894 -17.67766,2.92895 -6.90356,-1e-5 -12.79613,-0.97633 -17.67768,-2.92895 C 97.440765,122.11843 94.999992,119.76141 95,117 c -8e-6,-2.76142 2.440765,-5.11845 7.32232,-7.07107 C 107.20387,107.97631 113.09644,107 120,107 c 6.90356,0 12.79611,0.97631 17.67766,2.92893 C 142.55922,111.88155 145,114.23858 145,117 Z" /></g><g
           transform="matrix(0.72000003,0,0,0.72000003,74.880005,79.920006)"
           id="g90"><text
             id="text94"
             style="font-variant:normal;font-weight:normal;font-size:12px;font-family:Helvetica;-inkscape-font-specification:Helvetica;writing-mode:lr-tb;fill:#000000;fill-opacity:1;fill-rule:nonzero;stroke:none"
             transform="translate(0.984375,11)"><tspan
               id="tspan92"
               y="0"
               x="0 8.6660156 15.339844 25.335938">Nome</tspan></text>
</g><g
           transform="matrix(0.72000003,0,0,0.72000003,0.36000001,0.36000001)"
           id="g96"><path
             id="path98"
             style="fill:#ffffff;fill-opacity:1;fill-rule:nonzero;stroke:none"
             d="m 180,114 c 0,2.76142 -1.46446,5.11844 -4.3934,7.07106 -2.92894,1.95262 -6.46446,2.92893 -10.6066,2.92894 -4.14214,-1e-5 -7.67767,-0.97632 -10.60661,-2.92894 C 151.46445,119.11844 149.99998,116.76142 150,114 c -2e-5,-2.76144 1.46445,-5.11846 4.39339,-7.07108 C 157.32233,104.9763 160.85786,104 165,104 c 4.14214,0 7.67766,0.9763 10.6066,2.92892 C 178.53554,108.88154 180,111.23856 180,114 Z" /><path
             id="path100"
             style="fill:none;stroke:#000000;stroke-width:1;stroke-linecap:butt;stroke-linejoin:miter;stroke-miterlimit:10;stroke-dasharray:none;stroke-opacity:1"
             d="m 180,114 c 0,2.76142 -1.46446,5.11844 -4.3934,7.07106 -2.92894,1.95262 -6.46446,2.92893 -10.6066,2.92894 -4.14214,-1e-5 -7.67767,-0.97632 -10.60661,-2.92894 C 151.46445,119.11844 149.99998,116.76142 150,114 c -2e-5,-2.76144 1.46445,-5.11846 4.39339,-7.07108 C 157.32233,104.9763 160.85786,104 165,104 c 4.14214,0 7.67766,0.9763 10.6066,2.92892 C 178.53554,108.88154 180,111.23856 180,114 Z" /></g><g
           transform="matrix(0.72000003,0,0,0.72000003,113.04,77.760002)"
           id="g102"><text
             id="text106"
             style="font-variant:normal;font-weight:normal;font-size:12px;font-family:Helvetica;-inkscape-font-specification:Helvetica;writing-mode:lr-tb;fill:#000000;fill-opacity:1;fill-rule:nonzero;stroke:none"
             transform="translate(0.5,11)"><tspan
               id="tspan104"
               y="0"
               x="0 8.6660156">UF</tspan></text>
</g><g
           transform="matrix(0.72000003,0,0,0.72000003,0.36000001,0.36000001)"
           id="g108"><path
             id="path110"
             style="fill:none;stroke:#000000;stroke-width:1;stroke-linecap:butt;stroke-linejoin:miter;stroke-miterlimit:10;stroke-dasharray:none;stroke-opacity:1"
             d="M 27.440001,111.41 64.050003,95" /><path
             id="path112"
             style="fill:none;stroke:#000000;stroke-width:1;stroke-linecap:butt;stroke-linejoin:miter;stroke-miterlimit:10;stroke-dasharray:none;stroke-opacity:1"
             d="M 69.279999,107.72 82.300003,95" /><path
             id="path114"
             style="fill:none;stroke:#000000;stroke-width:1;stroke-linecap:butt;stroke-linejoin:miter;stroke-miterlimit:10;stroke-dasharray:none;stroke-opacity:1"
             d="M 114.25,107.27 106.62,95" /><path
             id="path116"
             style="fill:none;stroke:#000000;stroke-width:1;stroke-linecap:butt;stroke-linejoin:miter;stroke-miterlimit:10;stroke-dasharray:none;stroke-opacity:1"
             d="m 127.33,95 25.73,12.94" /><path
             id="path118"
             style="fill:#ffffff;fill-opacity:1;fill-rule:nonzero;stroke:none"
             d="m 490,250 h 105 v 30 H 490 Z" /><path
             id="path120"
             style="fill:none;stroke:#000000;stroke-width:1;stroke-linecap:butt;stroke-linejoin:miter;stroke-miterlimit:10;stroke-dasharray:none;stroke-opacity:1"
             d="m 490,250 h 105 v 30 H 490 Z" /></g><g
           transform="matrix(0.72000003,0,0,0.72000003,376.56003,186.48001)"
           id="g122"><text
             id="text126"
             style="font-variant:normal;font-weight:normal;font-size:12px;font-family:Helvetica;-inkscape-font-specification:Helvetica;writing-mode:lr-tb;fill:#000000;fill-opacity:1;fill-rule:nonzero;stroke:none"
             transform="translate(0.8125,11)"><tspan
               id="tspan124"
               y="0"
               x="0 9.3339844 13.330078 20.003906 26.677734 33.351562">Órgãos</tspan></text>
</g><g
           transform="matrix(0.72000003,0,0,0.72000003,0.36000001,0.36000001)"
           id="g128"><path
             id="path130"
             style="fill:#ffffff;fill-opacity:1;fill-rule:nonzero;stroke:none"
             d="m 511,230 c -3e-5,2.76141 -1.46451,5.11844 -4.39343,7.07106 -2.92893,1.95262 -6.46445,2.92892 -10.60657,2.92894 -4.14218,-2e-5 -7.6777,-0.97632 -10.60663,-2.92894 C 482.46445,235.11844 480.99997,232.76141 481,230 c -3e-5,-2.76143 1.46445,-5.11847 4.39337,-7.07109 C 488.3223,220.9763 491.85782,220 496,220 c 4.14212,0 7.67764,0.9763 10.60657,2.92891 2.92892,1.95262 4.3934,4.30966 4.39343,7.07109 z" /><path
             id="path132"
             style="fill:none;stroke:#000000;stroke-width:1;stroke-linecap:butt;stroke-linejoin:miter;stroke-miterlimit:10;stroke-dasharray:none;stroke-opacity:1"
             d="m 511,230 c -3e-5,2.76141 -1.46451,5.11844 -4.39343,7.07106 -2.92893,1.95262 -6.46445,2.92892 -10.60657,2.92894 -4.14218,-2e-5 -7.6777,-0.97632 -10.60663,-2.92894 C 482.46445,235.11844 480.99997,232.76141 481,230 c -3e-5,-2.76143 1.46445,-5.11847 4.39337,-7.07109 C 488.3223,220.9763 491.85782,220 496,220 c 4.14212,0 7.67764,0.9763 10.60657,2.92891 2.92892,1.95262 4.3934,4.30966 4.39343,7.07109 z" /></g><g
           transform="matrix(0.72000003,0,0,0.72000003,352.80002,161.28)"
           id="g134"><path
             id="path136"
             style="fill:#000000;fill-opacity:1;fill-rule:nonzero;stroke:none"
             d="m 0.5,12 h 12 v 1 h -12 z" /><text
             id="text140"
             style="font-variant:normal;font-weight:normal;font-size:12px;font-family:Helvetica;-inkscape-font-specification:Helvetica;writing-mode:lr-tb;fill:#000000;fill-opacity:1;fill-rule:nonzero;stroke:none"
             transform="translate(0.5,11)"><tspan
               id="tspan138"
               y="0"
               x="0 3.3339844">ID</tspan></text>
</g><g
           transform="matrix(0.72000003,0,0,0.72000003,0.36000001,0.36000001)"
           id="g142"><path
             id="path144"
             style="fill:#ffffff;fill-opacity:1;fill-rule:nonzero;stroke:none"
             d="m 573,230 c -6e-5,2.76141 -2.44086,5.11844 -7.32239,7.07106 C 560.79608,239.02368 554.9035,239.99998 548,240 c -6.90363,-2e-5 -12.7962,-0.97632 -17.67773,-2.92894 C 525.44073,235.11844 522.99994,232.76141 523,230 c -6e-5,-2.76143 2.44073,-5.11847 7.32227,-7.07109 C 535.2038,220.9763 541.09637,220 548,220 c 6.9035,0 12.79608,0.9763 17.67761,2.92891 4.88153,1.95262 7.32233,4.30966 7.32239,7.07109 z" /><path
             id="path146"
             style="fill:none;stroke:#000000;stroke-width:1;stroke-linecap:butt;stroke-linejoin:miter;stroke-miterlimit:10;stroke-dasharray:none;stroke-opacity:1"
             d="m 573,230 c -6e-5,2.76141 -2.44086,5.11844 -7.32239,7.07106 C 560.79608,239.02368 554.9035,239.99998 548,240 c -6.90363,-2e-5 -12.7962,-0.97632 -17.67773,-2.92894 C 525.44073,235.11844 522.99994,232.76141 523,230 c -6e-5,-2.76143 2.44073,-5.11847 7.32227,-7.07109 C 535.2038,220.9763 541.09637,220 548,220 c 6.9035,0 12.79608,0.9763 17.67761,2.92891 4.88153,1.95262 7.32233,4.30966 7.32239,7.07109 z" /></g><g
           transform="matrix(0.72000003,0,0,0.72000003,383.04001,161.28)"
           id="g148"><text
             id="text152"
             style="font-variant:normal;font-weight:normal;font-size:12px;font-family:Helvetica;-inkscape-font-specification:Helvetica;writing-mode:lr-tb;fill:#000000;fill-opacity:1;fill-rule:nonzero;stroke:none"
             transform="translate(0.984375,11)"><tspan
               id="tspan150"
               y="0"
               x="0 8.6660156 15.339844 25.335938">Nome</tspan></text>
</g><g
           transform="matrix(0.72000003,0,0,0.72000003,0.36000001,0.36000001)"
           id="g154"><path
             id="path156"
             style="fill:#ffffff;fill-opacity:1;fill-rule:nonzero;stroke:none"
             d="m 624,230 c -6e-5,2.76141 -2.14795,5.11844 -6.44373,7.07106 -4.29571,1.95262 -9.48114,2.92892 -15.55627,2.92894 -6.07513,-2e-5 -11.26062,-0.97632 -15.5564,-2.92894 C 582.14789,235.11844 580,232.76141 580,230 c 0,-2.76143 2.14789,-5.11847 6.4436,-7.07109 C 590.73938,220.9763 595.92487,220 602,220 c 6.07513,0 11.26056,0.9763 15.55627,2.92891 4.29578,1.95262 6.44367,4.30966 6.44373,7.07109 z" /><path
             id="path158"
             style="fill:none;stroke:#000000;stroke-width:1;stroke-linecap:butt;stroke-linejoin:miter;stroke-miterlimit:10;stroke-dasharray:none;stroke-opacity:1"
             d="m 624,230 c -6e-5,2.76141 -2.14795,5.11844 -6.44373,7.07106 -4.29571,1.95262 -9.48114,2.92892 -15.55627,2.92894 -6.07513,-2e-5 -11.26062,-0.97632 -15.5564,-2.92894 C 582.14789,235.11844 580,232.76141 580,230 c 0,-2.76143 2.14789,-5.11847 6.4436,-7.07109 C 590.73938,220.9763 595.92487,220 602,220 c 6.07513,0 11.26056,0.9763 15.55627,2.92891 4.29578,1.95262 6.44367,4.30966 6.44373,7.07109 z" /></g><g
           transform="matrix(0.72000003,0,0,0.72000003,421.20001,161.28)"
           id="g160"><text
             id="text164"
             style="font-variant:normal;font-weight:normal;font-size:12px;font-family:Helvetica;-inkscape-font-specification:Helvetica;writing-mode:lr-tb;fill:#000000;fill-opacity:1;fill-rule:nonzero;stroke:none"
             transform="translate(0.65625,11)"><tspan
               id="tspan162"
               y="0"
               x="0 8.0039062 14.003906 17.337891 24.011719 28.007812">Esfera</tspan></text>
</g><g
           transform="matrix(0.72000003,0,0,0.72000003,0.36000001,0.36000001)"
           id="g166"><path
             id="path168"
             style="fill:none;stroke:#000000;stroke-width:1;stroke-linecap:butt;stroke-linejoin:miter;stroke-miterlimit:10;stroke-dasharray:none;stroke-opacity:1"
             d="M 505.32001,237.56 522.35999,250" /><path
             id="path170"
             style="fill:none;stroke:#000000;stroke-width:1;stroke-linecap:butt;stroke-linejoin:miter;stroke-miterlimit:10;stroke-dasharray:none;stroke-opacity:1"
             d="M 546.5,239.98 544.85999,250" /><path
             id="path172"
             style="fill:none;stroke:#000000;stroke-width:1;stroke-linecap:butt;stroke-linejoin:miter;stroke-miterlimit:10;stroke-dasharray:none;stroke-opacity:1"
             d="M 567.78998,250 588.12,237.94" /><path
             id="path174"
             style="fill:#ffffff;fill-opacity:1;fill-rule:nonzero;stroke:none"
             d="m 238.5,250 h 105 v 30 h -105 z" /><path
             id="path176"
             style="fill:none;stroke:#000000;stroke-width:1;stroke-linecap:butt;stroke-linejoin:miter;stroke-miterlimit:10;stroke-dasharray:none;stroke-opacity:1"
             d="m 238.5,250 h 105 v 30 h -105 z" /></g><g
           transform="matrix(0.72000003,0,0,0.72000003,189.36,186.48001)"
           id="g178"><text
             id="text182"
             style="font-variant:normal;font-weight:normal;font-size:12px;font-family:Helvetica;-inkscape-font-specification:Helvetica;writing-mode:lr-tb;fill:#000000;fill-opacity:1;fill-rule:nonzero;stroke:none"
             transform="translate(0.8125,11)"><tspan
               id="tspan180"
               y="0"
               x="0 9.9960938 16.669922 23.34375 26.009766 32.009766 35.34375 42.017578 44.683594 51.357422">Municípios</tspan></text>
</g><g
           transform="matrix(0.72000003,0,0,0.72000003,0.36000001,0.36000001)"
           id="g184"><path
             id="path186"
             style="fill:#ffffff;fill-opacity:1;fill-rule:nonzero;stroke:none"
             d="m 221,230 c -2e-5,2.76141 -1.46448,5.11844 -4.39342,7.07106 -2.92892,1.95262 -6.46444,2.92892 -10.60658,2.92894 -4.14215,-2e-5 -7.67769,-0.97632 -10.60663,-2.92894 C 192.46443,235.11844 190.99998,232.76141 191,230 c -2e-5,-2.76143 1.46443,-5.11847 4.39337,-7.07109 C 198.32231,220.9763 201.85785,220 206,220 c 4.14214,0 7.67766,0.9763 10.60658,2.92891 2.92894,1.95262 4.3934,4.30966 4.39342,7.07109 z" /><path
             id="path188"
             style="fill:none;stroke:#000000;stroke-width:1;stroke-linecap:butt;stroke-linejoin:miter;stroke-miterlimit:10;stroke-dasharray:none;stroke-opacity:1"
             d="m 221,230 c -2e-5,2.76141 -1.46448,5.11844 -4.39342,7.07106 -2.92892,1.95262 -6.46444,2.92892 -10.60658,2.92894 -4.14215,-2e-5 -7.67769,-0.97632 -10.60663,-2.92894 C 192.46443,235.11844 190.99998,232.76141 191,230 c -2e-5,-2.76143 1.46443,-5.11847 4.39337,-7.07109 C 198.32231,220.9763 201.85785,220 206,220 c 4.14214,0 7.67766,0.9763 10.60658,2.92891 2.92894,1.95262 4.3934,4.30966 4.39342,7.07109 z" /></g><g
           transform="matrix(0.72000003,0,0,0.72000003,144,161.28)"
           id="g190"><path
             id="path192"
             style="fill:#000000;fill-opacity:1;fill-rule:nonzero;stroke:none"
             d="m 0.5,12 h 12 v 1 h -12 z" /><text
             id="text196"
             style="font-variant:normal;font-weight:normal;font-size:12px;font-family:Helvetica;-inkscape-font-specification:Helvetica;writing-mode:lr-tb;fill:#000000;fill-opacity:1;fill-rule:nonzero;stroke:none"
             transform="translate(0.5,11)"><tspan
               id="tspan194"
               y="0"
               x="0 3.3339844">ID</tspan></text>
</g><g
           transform="matrix(0.72000003,0,0,0.72000003,0.36000001,0.36000001)"
           id="g198"><path
             id="path200"
             style="fill:#ffffff;fill-opacity:1;fill-rule:nonzero;stroke:none"
             d="m 276,230 c -3e-5,2.76141 -2.4408,5.11844 -7.32236,7.07106 C 263.79608,239.02368 257.90353,239.99998 251,240 c -6.90356,-2e-5 -12.79613,-0.97632 -17.67767,-2.92894 C 228.44078,235.11844 226,232.76141 226,230 c 0,-2.76143 2.44078,-5.11847 7.32233,-7.07109 C 238.20387,220.9763 244.09644,220 251,220 c 6.90353,0 12.79608,0.9763 17.67764,2.92891 4.88156,1.95262 7.32233,4.30966 7.32236,7.07109 z" /><path
             id="path202"
             style="fill:none;stroke:#000000;stroke-width:1;stroke-linecap:butt;stroke-linejoin:miter;stroke-miterlimit:10;stroke-dasharray:none;stroke-opacity:1"
             d="m 276,230 c -3e-5,2.76141 -2.4408,5.11844 -7.32236,7.07106 C 263.79608,239.02368 257.90353,239.99998 251,240 c -6.90356,-2e-5 -12.79613,-0.97632 -17.67767,-2.92894 C 228.44078,235.11844 226,232.76141 226,230 c 0,-2.76143 2.44078,-5.11847 7.32233,-7.07109 C 238.20387,220.9763 244.09644,220 251,220 c 6.90353,0 12.79608,0.9763 17.67764,2.92891 4.88156,1.95262 7.32233,4.30966 7.32236,7.07109 z" /></g><g
           transform="matrix(0.72000003,0,0,0.72000003,169.20001,161.28)"
           id="g204"><text
             id="text208"
             style="font-variant:normal;font-weight:normal;font-size:12px;font-family:Helvetica;-inkscape-font-specification:Helvetica;writing-mode:lr-tb;fill:#000000;fill-opacity:1;fill-rule:nonzero;stroke:none"
             transform="translate(0.984375,11)"><tspan
               id="tspan206"
               y="0"
               x="0 8.6660156 15.339844 25.335938">Nome</tspan></text>
</g><g
           transform="matrix(0.72000003,0,0,0.72000003,0.36000001,0.36000001)"
           id="g210"><path
             id="path212"
             style="fill:#ffffff;fill-opacity:1;fill-rule:nonzero;stroke:none"
             d="m 351,230 c -3e-5,1.32607 -0.91348,2.60167 -2.74036,3.82681 -1.8269,1.22515 -4.42819,2.30655 -7.80383,3.24425 -3.37567,0.93767 -7.26877,1.66023 -11.67926,2.16771 -4.41049,0.50746 -9.00269,0.76121 -13.77655,0.76123 -4.77393,-2e-5 -9.36615,-0.25377 -13.77667,-0.76123 -4.41049,-0.50748 -8.30356,-1.23004 -11.6792,-2.16771 -3.37567,-0.9377 -5.97696,-2.0191 -7.80383,-3.24425 C 279.91339,232.60167 278.99997,231.32607 279,230 c -3e-5,-1.3261 0.91339,-2.60172 2.7403,-3.82686 1.82687,-1.22514 4.42816,-2.30656 7.80383,-3.24423 3.37564,-0.93767 7.26871,-1.66025 11.6792,-2.16773 C 305.63385,220.25372 310.22607,220 315,220 c 4.77386,0 9.36606,0.25372 13.77655,0.76118 4.41049,0.50748 8.30359,1.23006 11.67926,2.16773 3.37564,0.93767 5.97693,2.01909 7.80383,3.24423 1.82688,1.22514 2.74033,2.50076 2.74036,3.82686 z" /><path
             id="path214"
             style="fill:none;stroke:#000000;stroke-width:1;stroke-linecap:butt;stroke-linejoin:miter;stroke-miterlimit:10;stroke-dasharray:none;stroke-opacity:1"
             d="m 351,230 c -3e-5,1.32607 -0.91348,2.60167 -2.74036,3.82681 -1.8269,1.22515 -4.42819,2.30655 -7.80383,3.24425 -3.37567,0.93767 -7.26877,1.66023 -11.67926,2.16771 -4.41049,0.50746 -9.00269,0.76121 -13.77655,0.76123 -4.77393,-2e-5 -9.36615,-0.25377 -13.77667,-0.76123 -4.41049,-0.50748 -8.30356,-1.23004 -11.6792,-2.16771 -3.37567,-0.9377 -5.97696,-2.0191 -7.80383,-3.24425 C 279.91339,232.60167 278.99997,231.32607 279,230 c -3e-5,-1.3261 0.91339,-2.60172 2.7403,-3.82686 1.82687,-1.22514 4.42816,-2.30656 7.80383,-3.24423 3.37564,-0.93767 7.26871,-1.66025 11.6792,-2.16773 C 305.63385,220.25372 310.22607,220 315,220 c 4.77386,0 9.36606,0.25372 13.77655,0.76118 4.41049,0.50748 8.30359,1.23006 11.67926,2.16773 3.37564,0.93767 5.97693,2.01909 7.80383,3.24423 1.82688,1.22514 2.74033,2.50076 2.74036,3.82686 z" /></g><g
           transform="matrix(0.72000003,0,0,0.72000003,208.08,161.28)"
           id="g216"><text
             id="text220"
             style="font-variant:normal;font-weight:normal;font-size:12px;font-family:Helvetica;-inkscape-font-specification:Helvetica;writing-mode:lr-tb;fill:#000000;fill-opacity:1;fill-rule:nonzero;stroke:none"
             transform="translate(0.328125,11)"><tspan
               id="tspan218"
               y="0"
               x="0 8.6660156 15.339844 25.335938 32.009766 35.34375 44.009766">Nome UF</tspan></text>
</g><g
           transform="matrix(0.72000003,0,0,0.72000003,0.36000001,0.36000001)"
           id="g222"><path
             id="path224"
             style="fill:#ffffff;fill-opacity:1;fill-rule:nonzero;stroke:none"
             d="m 417.5,230 c -3e-5,2.76141 -2.88019,5.11844 -8.64041,7.07106 C 403.09937,239.02368 396.14615,239.99998 388,240 c -8.14621,-2e-5 -15.09943,-0.97632 -20.85965,-2.92894 C 361.38013,235.11844 358.5,232.76141 358.5,230 c 0,-2.76143 2.88013,-5.11847 8.64035,-7.07109 C 372.90057,220.9763 379.85379,220 388,220 c 8.14615,0 15.09937,0.9763 20.85959,2.92891 5.76022,1.95262 8.64038,4.30966 8.64041,7.07109 z" /><path
             id="path226"
             style="fill:none;stroke:#000000;stroke-width:1;stroke-linecap:butt;stroke-linejoin:miter;stroke-miterlimit:10;stroke-dasharray:none;stroke-opacity:1"
             d="m 417.5,230 c -3e-5,2.76141 -2.88019,5.11844 -8.64041,7.07106 C 403.09937,239.02368 396.14615,239.99998 388,240 c -8.14621,-2e-5 -15.09943,-0.97632 -20.85965,-2.92894 C 361.38013,235.11844 358.5,232.76141 358.5,230 c 0,-2.76143 2.88013,-5.11847 8.64035,-7.07109 C 372.90057,220.9763 379.85379,220 388,220 c 8.14615,0 15.09937,0.9763 20.85959,2.92891 5.76022,1.95262 8.64038,4.30966 8.64041,7.07109 z" /></g><g
           transform="matrix(0.72000003,0,0,0.72000003,262.08002,161.28)"
           id="g228"><text
             id="text232"
             style="font-variant:normal;font-weight:normal;font-size:12px;font-family:Helvetica;-inkscape-font-specification:Helvetica;writing-mode:lr-tb;fill:#000000;fill-opacity:1;fill-rule:nonzero;stroke:none"
             transform="translate(0.484375,11)"><tspan
               id="tspan230"
               y="0"
               x="0 8.0039062 10.669922 17.34375 20.009766 26.683594 30.017578 38.683594">Sigla UF</tspan></text>
</g><g
           transform="matrix(0.72000003,0,0,0.72000003,0.36000001,0.36000001)"
           id="g234"><path
             id="path236"
             style="fill:none;stroke:#000000;stroke-width:1;stroke-linecap:butt;stroke-linejoin:miter;stroke-miterlimit:10;stroke-dasharray:none;stroke-opacity:1"
             d="M 218.72,235.3 254.57001,250" /><path
             id="path238"
             style="fill:none;stroke:#000000;stroke-width:1;stroke-linecap:butt;stroke-linejoin:miter;stroke-miterlimit:10;stroke-dasharray:none;stroke-opacity:1"
             d="M 261.07001,239.14999 273.85999,250" /><path
             id="path240"
             style="fill:none;stroke:#000000;stroke-width:1;stroke-linecap:butt;stroke-linejoin:miter;stroke-miterlimit:10;stroke-dasharray:none;stroke-opacity:1"
             d="m 308.60001,239.84 -7.31,10.16" /><path
             id="path242"
             style="fill:none;stroke:#000000;stroke-width:1;stroke-linecap:butt;stroke-linejoin:miter;stroke-miterlimit:10;stroke-dasharray:none;stroke-opacity:1"
             d="m 332.41,250 35,-12.67999" /><path
             id="path244"
             style="fill:#ffffff;fill-opacity:1;fill-rule:nonzero;stroke:none"
             d="m 518.5,65 h 105 v 30 h -105 z" /><path
             id="path246"
             style="fill:none;stroke:#000000;stroke-width:1;stroke-linecap:butt;stroke-linejoin:miter;stroke-miterlimit:10;stroke-dasharray:none;stroke-opacity:1"
             d="m 518.5,65 h 105 v 30 h -105 z" /></g><g
           transform="matrix(0.72000003,0,0,0.72000003,386.64001,53.280003)"
           id="g248"><text
             id="text252"
             style="font-variant:normal;font-weight:normal;font-size:12px;font-family:Helvetica;-inkscape-font-specification:Helvetica;writing-mode:lr-tb;fill:#000000;fill-opacity:1;fill-rule:nonzero;stroke:none"
             transform="translate(0.46875,11)"><tspan
               id="tspan250"
               y="0"
               x="0 9.9960938 16.669922 23.34375 30.017578 32.683594 35.349609 42.023438 48.697266 55.371094 62.044922">Modalidades</tspan></text>
</g><g
           transform="matrix(0.72000003,0,0,0.72000003,0.36000001,0.36000001)"
           id="g254"><path
             id="path256"
             style="fill:#ffffff;fill-opacity:1;fill-rule:nonzero;stroke:none"
             d="m 533,120 c 0,2.76142 -1.46448,5.11845 -4.39343,7.07107 C 525.67767,129.02368 522.14215,130 518,130 c -4.14215,0 -7.67773,-0.97632 -10.60666,-2.92893 C 504.46442,125.11845 502.99997,122.76142 503,120 c -3e-5,-2.76144 1.46442,-5.11846 4.39334,-7.07107 C 510.32227,110.97631 513.85785,110 518,110 c 4.14215,0 7.67767,0.97631 10.60657,2.92893 C 531.53552,114.88154 533,117.23856 533,120 Z" /><path
             id="path258"
             style="fill:none;stroke:#000000;stroke-width:1;stroke-linecap:butt;stroke-linejoin:miter;stroke-miterlimit:10;stroke-dasharray:none;stroke-opacity:1"
             d="m 533,120 c 0,2.76142 -1.46448,5.11845 -4.39343,7.07107 C 525.67767,129.02368 522.14215,130 518,130 c -4.14215,0 -7.67773,-0.97632 -10.60666,-2.92893 C 504.46442,125.11845 502.99997,122.76142 503,120 c -3e-5,-2.76144 1.46442,-5.11846 4.39334,-7.07107 C 510.32227,110.97631 513.85785,110 518,110 c 4.14215,0 7.67767,0.97631 10.60657,2.92893 C 531.53552,114.88154 533,117.23856 533,120 Z" /></g><g
           transform="matrix(0.72000003,0,0,0.72000003,368.64001,82.080002)"
           id="g260"><path
             id="path262"
             style="fill:#000000;fill-opacity:1;fill-rule:nonzero;stroke:none"
             d="m 0.5,12 h 12 v 1 h -12 z" /><text
             id="text266"
             style="font-variant:normal;font-weight:normal;font-size:12px;font-family:Helvetica;-inkscape-font-specification:Helvetica;writing-mode:lr-tb;fill:#000000;fill-opacity:1;fill-rule:nonzero;stroke:none"
             transform="translate(0.5,11)"><tspan
               id="tspan264"
               y="0"
               x="0 3.3339844">ID</tspan></text>
</g><g
           transform="matrix(0.72000003,0,0,0.72000003,0.36000001,0.36000001)"
           id="g268"><path
             id="path270"
             style="fill:#ffffff;fill-opacity:1;fill-rule:nonzero;stroke:none"
             d="m 624,120 c -6e-5,1.32607 -0.96429,2.60169 -2.89264,3.82683 -1.9284,1.22514 -4.67419,2.30655 -8.23736,3.24424 -3.56318,0.93767 -7.67255,1.66025 -12.32813,2.16771 -4.65552,0.50747 -9.50281,0.7612 -14.54187,0.76122 -5.03918,-2e-5 -9.88654,-0.25375 -14.54211,-0.76122 -4.65552,-0.50746 -8.76484,-1.23004 -12.32801,-2.16771 -3.56323,-0.93769 -6.30902,-2.0191 -8.23742,-3.24424 C 548.96405,122.60169 547.99994,121.32607 548,120 c -6e-5,-1.3261 0.96405,-2.60171 2.89246,-3.82685 1.9284,-1.22514 4.67419,-2.30655 8.23742,-3.24422 3.56317,-0.93769 7.67249,-1.66026 12.32801,-2.16773 C 576.11346,110.25373 580.96082,110 586,110 c 5.03906,0 9.88635,0.25373 14.54187,0.7612 4.65558,0.50747 8.76495,1.23004 12.32813,2.16773 3.56317,0.93767 6.30896,2.01908 8.23736,3.24422 1.92835,1.22514 2.89258,2.50075 2.89264,3.82685 z" /><path
             id="path272"
             style="fill:none;stroke:#000000;stroke-width:1;stroke-linecap:butt;stroke-linejoin:miter;stroke-miterlimit:10;stroke-dasharray:none;stroke-opacity:1"
             d="m 624,120 c -6e-5,1.32607 -0.96429,2.60169 -2.89264,3.82683 -1.9284,1.22514 -4.67419,2.30655 -8.23736,3.24424 -3.56318,0.93767 -7.67255,1.66025 -12.32813,2.16771 -4.65552,0.50747 -9.50281,0.7612 -14.54187,0.76122 -5.03918,-2e-5 -9.88654,-0.25375 -14.54211,-0.76122 -4.65552,-0.50746 -8.76484,-1.23004 -12.32801,-2.16771 -3.56323,-0.93769 -6.30902,-2.0191 -8.23742,-3.24424 C 548.96405,122.60169 547.99994,121.32607 548,120 c -6e-5,-1.3261 0.96405,-2.60171 2.89246,-3.82685 1.9284,-1.22514 4.67419,-2.30655 8.23742,-3.24422 3.56317,-0.93769 7.67249,-1.66026 12.32801,-2.16773 C 576.11346,110.25373 580.96082,110 586,110 c 5.03906,0 9.88635,0.25373 14.54187,0.7612 4.65558,0.50747 8.76495,1.23004 12.32813,2.16773 3.56317,0.93767 6.30896,2.01908 8.23736,3.24422 1.92835,1.22514 2.89258,2.50075 2.89264,3.82685 z" /></g><g
           transform="matrix(0.72000003,0,0,0.72000003,402.48001,82.080002)"
           id="g274"><text
             id="text278"
             style="font-variant:normal;font-weight:normal;font-size:12px;font-family:Helvetica;-inkscape-font-specification:Helvetica;writing-mode:lr-tb;fill:#000000;fill-opacity:1;fill-rule:nonzero;stroke:none"
             transform="translate(0.3125,11)"><tspan
               id="tspan276"
               y="0"
               x="0 8.6660156 15.339844 21.339844 27.339844 31.335938 34.001953 40.001953 46.675781">Descrição</tspan></text>
</g><g
           transform="matrix(0.72000003,0,0,0.72000003,0.36000001,0.36000001)"
           id="g280"><path
             id="path282"
             style="fill:none;stroke:#000000;stroke-width:1;stroke-linecap:butt;stroke-linejoin:miter;stroke-miterlimit:10;stroke-dasharray:none;stroke-opacity:1"
             d="M 527.90997,112.49 551.13,95" /><path
             id="path284"
             style="fill:none;stroke:#000000;stroke-width:1;stroke-linecap:butt;stroke-linejoin:miter;stroke-miterlimit:10;stroke-dasharray:none;stroke-opacity:1"
             d="M 581.91998,110.04 576.44,95" /><path
             id="path286"
             style="fill:#ffffff;fill-opacity:1;fill-rule:nonzero;stroke:none"
             d="m 442,394 c -3e-5,2.76141 -1.46451,5.11844 -4.39343,7.07104 -2.92893,1.95261 -6.46445,2.92893 -10.60657,2.92896 -4.14215,-3e-5 -7.6777,-0.97635 -10.60663,-2.92896 -2.92892,-1.9526 -4.3934,-4.30963 -4.39337,-7.07104 -3e-5,-2.76144 1.46445,-5.1185 4.39337,-7.07111 C 419.3223,384.97629 422.85785,384 427,384 c 4.14212,0 7.67764,0.97629 10.60657,2.92889 2.92892,1.95261 4.3934,4.30967 4.39343,7.07111 z" /><path
             id="path288"
             style="fill:none;stroke:#000000;stroke-width:1;stroke-linecap:butt;stroke-linejoin:miter;stroke-miterlimit:10;stroke-dasharray:none;stroke-opacity:1"
             d="m 442,394 c -3e-5,2.76141 -1.46451,5.11844 -4.39343,7.07104 -2.92893,1.95261 -6.46445,2.92893 -10.60657,2.92896 -4.14215,-3e-5 -7.6777,-0.97635 -10.60663,-2.92896 -2.92892,-1.9526 -4.3934,-4.30963 -4.39337,-7.07104 -3e-5,-2.76144 1.46445,-5.1185 4.39337,-7.07111 C 419.3223,384.97629 422.85785,384 427,384 c 4.14212,0 7.67764,0.97629 10.60657,2.92889 2.92892,1.95261 4.3934,4.30967 4.39343,7.07111 z" /></g><g
           transform="matrix(0.72000003,0,0,0.72000003,303.12003,279.36002)"
           id="g290"><path
             id="path292"
             style="fill:#000000;fill-opacity:1;fill-rule:nonzero;stroke:none"
             d="m 0.5,12 h 12 v 1 h -12 z" /><text
             id="text296"
             style="font-variant:normal;font-weight:normal;font-size:12px;font-family:Helvetica;-inkscape-font-specification:Helvetica;writing-mode:lr-tb;fill:#000000;fill-opacity:1;fill-rule:nonzero;stroke:none"
             transform="translate(0.5,11)"><tspan
               id="tspan294"
               y="0"
               x="0 3.3339844">ID</tspan></text>
</g><g
           transform="matrix(0.72000003,0,0,0.72000003,0.36000001,0.36000001)"
           id="g298"><path
             id="path300"
             style="fill:#ffffff;fill-opacity:1;fill-rule:nonzero;stroke:none"
             d="m 399,394 c -3e-5,2.76141 -2.4408,5.11844 -7.32236,7.07104 C 386.79608,403.02365 380.90353,403.99997 374,404 c -6.90356,-3e-5 -12.79611,-0.97635 -17.67767,-2.92896 C 351.44077,399.11844 348.99997,396.76141 349,394 c -3e-5,-2.76144 2.44077,-5.1185 7.32233,-7.07111 C 361.20389,384.97629 367.09644,384 374,384 c 6.90353,0 12.79608,0.97629 17.67764,2.92889 4.88156,1.95261 7.32233,4.30967 7.32236,7.07111 z" /><path
             id="path302"
             style="fill:none;stroke:#000000;stroke-width:1;stroke-linecap:butt;stroke-linejoin:miter;stroke-miterlimit:10;stroke-dasharray:none;stroke-opacity:1"
             d="m 399,394 c -3e-5,2.76141 -2.4408,5.11844 -7.32236,7.07104 C 386.79608,403.02365 380.90353,403.99997 374,404 c -6.90356,-3e-5 -12.79611,-0.97635 -17.67767,-2.92896 C 351.44077,399.11844 348.99997,396.76141 349,394 c -3e-5,-2.76144 2.44077,-5.1185 7.32233,-7.07111 C 361.20389,384.97629 367.09644,384 374,384 c 6.90353,0 12.79608,0.97629 17.67764,2.92889 4.88156,1.95261 7.32233,4.30967 7.32236,7.07111 z" /></g><g
           transform="matrix(0.72000003,0,0,0.72000003,257.76001,279.36002)"
           id="g304"><text
             id="text308"
             style="font-variant:normal;font-weight:normal;font-size:12px;font-family:Helvetica;-inkscape-font-specification:Helvetica;writing-mode:lr-tb;fill:#000000;fill-opacity:1;fill-rule:nonzero;stroke:none"
             transform="translate(0.984375,11)"><tspan
               id="tspan306"
               y="0"
               x="0 8.6660156 15.339844 25.335938">Nome</tspan></text>
</g><g
           transform="matrix(0.72000003,0,0,0.72000003,0.36000001,0.36000001)"
           id="g310"><path
             id="path312"
             style="fill:none;stroke:#000000;stroke-width:1;stroke-linecap:butt;stroke-linejoin:miter;stroke-miterlimit:10;stroke-dasharray:none;stroke-opacity:1"
             d="M 426.5,384 V 370" /><path
             id="path314"
             style="fill:#ffffff;fill-opacity:1;fill-rule:nonzero;stroke:none"
             d="m 495,394 c -3e-5,2.76141 -1.46454,5.11844 -4.39346,7.07104 -2.92893,1.95261 -6.46442,2.92893 -10.60654,2.92896 -4.14215,-3e-5 -7.67767,-0.97635 -10.6066,-2.92896 C 466.46448,399.11844 465,396.76141 465,394 c 0,-2.76144 1.46448,-5.1185 4.3934,-7.07111 C 472.32233,384.97629 475.85785,384 480,384 c 4.14212,0 7.67761,0.97629 10.60654,2.92889 2.92892,1.95261 4.39343,4.30967 4.39346,7.07111 z" /><path
             id="path316"
             style="fill:none;stroke:#000000;stroke-width:1;stroke-linecap:butt;stroke-linejoin:miter;stroke-miterlimit:10;stroke-dasharray:none;stroke-opacity:1"
             d="m 495,394 c -3e-5,2.76141 -1.46454,5.11844 -4.39346,7.07104 -2.92893,1.95261 -6.46442,2.92893 -10.60654,2.92896 -4.14215,-3e-5 -7.67767,-0.97635 -10.6066,-2.92896 C 466.46448,399.11844 465,396.76141 465,394 c 0,-2.76144 1.46448,-5.1185 4.3934,-7.07111 C 472.32233,384.97629 475.85785,384 480,384 c 4.14212,0 7.67761,0.97629 10.60654,2.92889 2.92892,1.95261 4.39343,4.30967 4.39346,7.07111 z" /></g><g
           transform="matrix(0.72000003,0,0,0.72000003,336.96002,279.36002)"
           id="g318"><text
             id="text322"
             style="font-variant:normal;font-weight:normal;font-size:12px;font-family:Helvetica;-inkscape-font-specification:Helvetica;writing-mode:lr-tb;fill:#000000;fill-opacity:1;fill-rule:nonzero;stroke:none"
             transform="translate(0.65625,11)"><tspan
               id="tspan320"
               y="0"
               x="0 8.6660156 16.669922">CEP</tspan></text>
</g><g
           transform="matrix(0.72000003,0,0,0.72000003,0.36000001,0.36000001)"
           id="g324"><path
             id="path326"
             style="fill:#ffffff;fill-opacity:1;fill-rule:nonzero;stroke:none"
             d="M 426.5,310 470,340 426.5,370 383,340 Z" /><path
             id="path328"
             style="fill:none;stroke:#000000;stroke-width:1;stroke-linecap:butt;stroke-linejoin:miter;stroke-miterlimit:10;stroke-dasharray:none;stroke-opacity:1"
             d="M 426.5,310 470,340 426.5,370 383,340 Z" /></g><g
           transform="matrix(0.72000003,0,0,0.72000003,294.48001,240.48001)"
           id="g330"><text
             id="text334"
             style="font-variant:normal;font-weight:normal;font-size:12px;font-family:Helvetica;-inkscape-font-specification:Helvetica;writing-mode:lr-tb;fill:#000000;fill-opacity:1;fill-rule:nonzero;stroke:none"
             transform="translate(0.484375,11)"><tspan
               id="tspan332"
               y="0"
               x="0 8.6660156 16.669922 24.673828">UASG</tspan></text>
</g><g
           transform="matrix(0.72000003,0,0,0.72000003,0.36000001,0.36000001)"
           id="g336"><path
             id="path338"
             style="fill:#ffffff;fill-opacity:1;fill-rule:nonzero;stroke:none"
             d="m 404,30 c -3e-5,2.761421 -1.46451,5.118443 -4.39343,7.071064 C 396.67764,39.023685 393.14212,39.999996 389,40 c -4.14215,-4e-6 -7.6777,-0.976315 -10.60663,-2.928936 C 375.46445,35.118443 373.99997,32.761421 374,30 c -3e-5,-2.761425 1.46445,-5.118448 4.39337,-7.07107 C 381.3223,20.976311 384.85785,20 389,20 c 4.14212,0 7.67764,0.976311 10.60657,2.92893 2.92892,1.952622 4.3934,4.309645 4.39343,7.07107 z" /><path
             id="path340"
             style="fill:none;stroke:#000000;stroke-width:1;stroke-linecap:butt;stroke-linejoin:miter;stroke-miterlimit:10;stroke-dasharray:none;stroke-opacity:1"
             d="m 404,30 c -3e-5,2.761421 -1.46451,5.118443 -4.39343,7.071064 C 396.67764,39.023685 393.14212,39.999996 389,40 c -4.14215,-4e-6 -7.6777,-0.976315 -10.60663,-2.928936 C 375.46445,35.118443 373.99997,32.761421 374,30 c -3e-5,-2.761425 1.46445,-5.118448 4.39337,-7.07107 C 381.3223,20.976311 384.85785,20 389,20 c 4.14212,0 7.67764,0.976311 10.60657,2.92893 2.92892,1.952622 4.3934,4.309645 4.39343,7.07107 z" /></g><g
           transform="matrix(0.72000003,0,0,0.72000003,275.76001,17.280001)"
           id="g342"><path
             id="path344"
             style="fill:#000000;fill-opacity:1;fill-rule:nonzero;stroke:none"
             d="m 0.5,12 h 12 v 1 h -12 z" /><text
             id="text348"
             style="font-variant:normal;font-weight:normal;font-size:12px;font-family:Helvetica;-inkscape-font-specification:Helvetica;writing-mode:lr-tb;fill:#000000;fill-opacity:1;fill-rule:nonzero;stroke:none"
             transform="translate(0.5,11)"><tspan
               id="tspan346"
               y="0"
               x="0 3.3339844">ID</tspan></text>
</g><g
           transform="matrix(0.72000003,0,0,0.72000003,0.36000001,0.36000001)"
           id="g350"><path
             id="path352"
             style="fill:none;stroke:#000000;stroke-width:1;stroke-linecap:butt;stroke-linejoin:miter;stroke-miterlimit:10;stroke-dasharray:none;stroke-opacity:1"
             d="M 427,310 426.57001,109.96" /><path
             id="path354"
             style="fill:none;stroke:#000000;stroke-width:1;stroke-linecap:butt;stroke-linejoin:miter;stroke-miterlimit:10;stroke-dasharray:none;stroke-opacity:1"
             d="M 518.5,80 H 470" /><path
             id="path356"
             style="fill:#ffffff;fill-opacity:1;fill-rule:nonzero;stroke:none"
             d="M 426.5,50 470,80 426.5,110 383,80 Z" /><path
             id="path358"
             style="fill:none;stroke:#000000;stroke-width:1;stroke-linecap:butt;stroke-linejoin:miter;stroke-miterlimit:10;stroke-dasharray:none;stroke-opacity:1"
             d="M 426.5,50 470,80 426.5,110 383,80 Z" /></g><g
           transform="matrix(0.72000003,0,0,0.72000003,288,53.280003)"
           id="g360"><text
             id="text364"
             style="font-variant:normal;font-weight:normal;font-size:12px;font-family:Helvetica;-inkscape-font-specification:Helvetica;writing-mode:lr-tb;fill:#000000;fill-opacity:1;fill-rule:nonzero;stroke:none"
             transform="translate(0.8125,11)"><tspan
               id="tspan362"
               y="0"
               x="0 6.6738281 9.3398438 15.339844 18.005859 21.339844 28.013672 34.013672 40.6875 47.361328">Licitações</tspan></text>
</g><g
           transform="matrix(0.72000003,0,0,0.72000003,0.36000001,0.36000001)"
           id="g366"><path
             id="path368"
             style="fill:#ffffff;fill-opacity:1;fill-rule:nonzero;stroke:none"
             d="m 326,19 c -3e-5,2.453251 -1.1926,4.813131 -3.5777,7.079639 -2.3851,2.266509 -5.78122,4.267119 -10.18832,6.001831 -4.40711,1.734711 -9.48975,3.071476 -15.2479,4.010296 C 291.22794,37.030582 285.23257,37.499996 279,37.5 c -6.2326,-4e-6 -12.228,-0.469418 -17.98615,-1.408234 -5.75816,-0.93882 -10.84078,-2.275585 -15.24789,-4.010296 -4.40712,-1.734712 -7.80322,-3.735322 -10.18832,-6.001831 C 233.19252,23.813131 231.99998,21.453251 232,19 c -2e-5,-2.453253 1.19252,-4.813135 3.57764,-7.079644 2.3851,-2.2665102 5.7812,-4.2671206 10.18832,-6.0018317 4.40711,-1.7347117 9.48973,-3.071477 15.24789,-4.0102959 C 266.772,0.96940947 272.7674,0.5 279,0.5 c 6.23257,0 12.22794,0.46940947 17.98608,1.4082284 5.75815,0.9388189 10.84079,2.2755842 15.2479,4.0102959 4.4071,1.7347111 7.80322,3.7353215 10.18832,6.0018317 C 324.8074,14.186865 325.99997,16.546747 326,19 Z" /><path
             id="path370"
             style="fill:none;stroke:#000000;stroke-width:1;stroke-linecap:butt;stroke-linejoin:miter;stroke-miterlimit:10;stroke-dasharray:none;stroke-opacity:1"
             d="m 326,19 c -3e-5,2.453251 -1.1926,4.813131 -3.5777,7.079639 -2.3851,2.266509 -5.78122,4.267119 -10.18832,6.001831 -4.40711,1.734711 -9.48975,3.071476 -15.2479,4.010296 C 291.22794,37.030582 285.23257,37.499996 279,37.5 c -6.2326,-4e-6 -12.228,-0.469418 -17.98615,-1.408234 -5.75816,-0.93882 -10.84078,-2.275585 -15.24789,-4.010296 -4.40712,-1.734712 -7.80322,-3.735322 -10.18832,-6.001831 C 233.19252,23.813131 231.99998,21.453251 232,19 c -2e-5,-2.453253 1.19252,-4.813135 3.57764,-7.079644 2.3851,-2.2665102 5.7812,-4.2671206 10.18832,-6.0018317 4.40711,-1.7347117 9.48973,-3.071477 15.24789,-4.0102959 C 266.772,0.96940947 272.7674,0.5 279,0.5 c 6.23257,0 12.22794,0.46940947 17.98608,1.4082284 5.75815,0.9388189 10.84079,2.2755842 15.2479,4.0102959 4.4071,1.7347111 7.80322,3.7353215 10.18832,6.0018317 C 324.8074,14.186865 325.99997,16.546747 326,19 Z" /></g><g
           transform="matrix(0.72000003,0,0,0.72000003,168.48001,4.3200002)"
           id="g372"><text
             id="text376"
             style="font-variant:normal;font-weight:normal;font-size:12px;font-family:Helvetica;-inkscape-font-specification:Helvetica;writing-mode:lr-tb;fill:#000000;fill-opacity:1;fill-rule:nonzero;stroke:none"
             transform="translate(23.984375,11)"><tspan
               id="tspan374"
               y="0"
               x="0 8.6660156 15.339844 18.673828 25.347656 28.681641 35.355469">Data de</tspan></text>
<text
             id="text380"
             style="font-variant:normal;font-weight:normal;font-size:12px;font-family:Helvetica;-inkscape-font-specification:Helvetica;writing-mode:lr-tb;fill:#000000;fill-opacity:1;fill-rule:nonzero;stroke:none"
             transform="translate(16.65625,25)"><tspan
               id="tspan378"
               y="0"
               x="0 8.0039062 14.003906 20.003906 22.669922 29.34375 36.017578 39.351562 46.025391 50.021484">Assinatura</tspan></text>
</g><g
           transform="matrix(0.72000003,0,0,0.72000003,0.36000001,0.36000001)"
           id="g382"><path
             id="path384"
             style="fill:none;stroke:#000000;stroke-width:1;stroke-linecap:butt;stroke-linejoin:miter;stroke-miterlimit:10;stroke-dasharray:none;stroke-opacity:1"
             d="m 279,37 -0.26001,13.18" /><path
             id="path386"
             style="fill:#ffffff;fill-opacity:1;fill-rule:nonzero;stroke:none"
             d="m 278.5,50 40,30 -40,30 -40,-30 z" /><path
             id="path388"
             style="fill:none;stroke:#000000;stroke-width:1;stroke-linecap:butt;stroke-linejoin:miter;stroke-miterlimit:10;stroke-dasharray:none;stroke-opacity:1"
             d="m 278.5,50 40,30 -40,30 -40,-30 z" /></g><g
           transform="matrix(0.72000003,0,0,0.72000003,182.16,53.280003)"
           id="g390"><text
             id="text394"
             style="font-variant:normal;font-weight:normal;font-size:12px;font-family:Helvetica;-inkscape-font-specification:Helvetica;writing-mode:lr-tb;fill:#000000;fill-opacity:1;fill-rule:nonzero;stroke:none"
             transform="translate(0.984375,11)"><tspan
               id="tspan392"
               y="0"
               x="0 8.6660156 15.339844 22.013672 25.347656 29.34375 36.017578 39.351562 46.025391">Contratos</tspan></text>
</g><g
           transform="matrix(0.72000003,0,0,0.72000003,0.36000001,0.36000001)"
           id="g396"><path
             id="path398"
             style="fill:#ffffff;fill-opacity:1;fill-rule:nonzero;stroke:none"
             d="m 334,120 c -3e-5,2.76142 -1.46451,5.11845 -4.39343,7.07107 C 326.67764,129.02368 323.14212,130 319,130 c -4.14215,0 -7.6777,-0.97632 -10.60663,-2.92893 C 305.46445,125.11845 303.99997,122.76142 304,120 c -3e-5,-2.76144 1.46445,-5.11846 4.39337,-7.07107 C 311.3223,110.97631 314.85785,110 319,110 c 4.14212,0 7.67764,0.97631 10.60657,2.92893 2.92892,1.95261 4.3934,4.30963 4.39343,7.07107 z" /><path
             id="path400"
             style="fill:none;stroke:#000000;stroke-width:1;stroke-linecap:butt;stroke-linejoin:miter;stroke-miterlimit:10;stroke-dasharray:none;stroke-opacity:1"
             d="m 334,120 c -3e-5,2.76142 -1.46451,5.11845 -4.39343,7.07107 C 326.67764,129.02368 323.14212,130 319,130 c -4.14215,0 -7.6777,-0.97632 -10.60663,-2.92893 C 305.46445,125.11845 303.99997,122.76142 304,120 c -3e-5,-2.76144 1.46445,-5.11846 4.39337,-7.07107 C 311.3223,110.97631 314.85785,110 319,110 c 4.14212,0 7.67764,0.97631 10.60657,2.92893 2.92892,1.95261 4.3934,4.30963 4.39343,7.07107 z" /></g><g
           transform="matrix(0.72000003,0,0,0.72000003,225.36002,82.080002)"
           id="g402"><path
             id="path404"
             style="fill:#000000;fill-opacity:1;fill-rule:nonzero;stroke:none"
             d="m 0.5,12 h 12 v 1 h -12 z" /><text
             id="text408"
             style="font-variant:normal;font-weight:normal;font-size:12px;font-family:Helvetica;-inkscape-font-specification:Helvetica;writing-mode:lr-tb;fill:#000000;fill-opacity:1;fill-rule:nonzero;stroke:none"
             transform="translate(0.5,11)"><tspan
               id="tspan406"
               y="0"
               x="0 3.3339844">ID</tspan></text>
</g><g
           transform="matrix(0.72000003,0,0,0.72000003,0.36000001,0.36000001)"
           id="g410"><path
             id="path412"
             style="fill:none;stroke:#000000;stroke-width:1;stroke-linecap:butt;stroke-linejoin:miter;stroke-miterlimit:10;stroke-dasharray:none;stroke-opacity:1"
             d="M 295.64001,97.139999 310.17999,111.68" /></g><g
           transform="matrix(0.72000003,0,0,0.72000003,267.12003,46.080002)"
           id="g414"><text
             id="text418"
             style="font-variant:normal;font-weight:normal;font-size:12px;font-family:Helvetica;-inkscape-font-specification:Helvetica;writing-mode:lr-tb;fill:#000000;fill-opacity:1;fill-rule:nonzero;stroke:none"
             transform="translate(0.65625,11)"><tspan
               id="tspan416"
               y="0"
               x="0">n</tspan></text>
</g><g
           transform="matrix(0.72000003,0,0,0.72000003,115.20001,46.080002)"
           id="g420"><text
             id="text424"
             style="font-variant:normal;font-weight:normal;font-size:12px;font-family:Helvetica;-inkscape-font-specification:Helvetica;writing-mode:lr-tb;fill:#000000;fill-opacity:1;fill-rule:nonzero;stroke:none"
             transform="translate(0.5,11)"><tspan
               id="tspan422"
               y="0"
               x="0">m</tspan></text>
</g><g
           transform="matrix(0.72000003,0,0,0.72000003,345.60001,46.080002)"
           id="g426"><text
             id="text430"
             style="font-variant:normal;font-weight:normal;font-size:12px;font-family:Helvetica;-inkscape-font-specification:Helvetica;writing-mode:lr-tb;fill:#000000;fill-opacity:1;fill-rule:nonzero;stroke:none"
             transform="translate(0.65625,11)"><tspan
               id="tspan428"
               y="0"
               x="0">1</tspan></text>
</g><g
           transform="matrix(0.72000003,0,0,0.72000003,310.32001,82.080002)"
           id="g432"><text
             id="text436"
             style="font-variant:normal;font-weight:normal;font-size:12px;font-family:Helvetica;-inkscape-font-specification:Helvetica;writing-mode:lr-tb;fill:#000000;fill-opacity:1;fill-rule:nonzero;stroke:none"
             transform="translate(0.65625,11)"><tspan
               id="tspan434"
               y="0"
               x="0">1</tspan></text>
</g><g
           transform="matrix(0.72000003,0,0,0.72000003,380.16,204.48001)"
           id="g438"><text
             id="text442"
             style="font-variant:normal;font-weight:normal;font-size:12px;font-family:Helvetica;-inkscape-font-specification:Helvetica;writing-mode:lr-tb;fill:#000000;fill-opacity:1;fill-rule:nonzero;stroke:none"
             transform="translate(0.65625,11)"><tspan
               id="tspan440"
               y="0"
               x="0">n</tspan></text>
</g><g
           transform="matrix(0.72000003,0,0,0.72000003,218.16,204.48001)"
           id="g444"><text
             id="text448"
             style="font-variant:normal;font-weight:normal;font-size:12px;font-family:Helvetica;-inkscape-font-specification:Helvetica;writing-mode:lr-tb;fill:#000000;fill-opacity:1;fill-rule:nonzero;stroke:none"
             transform="translate(0.65625,11)"><tspan
               id="tspan446"
               y="0"
               x="0">n</tspan></text>
</g><g
           transform="matrix(0.72000003,0,0,0.72000003,263.52002,226.08)"
           id="g450"><text
             id="text454"
             style="font-variant:normal;font-weight:normal;font-size:12px;font-family:Helvetica;-inkscape-font-specification:Helvetica;writing-mode:lr-tb;fill:#000000;fill-opacity:1;fill-rule:nonzero;stroke:none"
             transform="translate(0.65625,11)"><tspan
               id="tspan452"
               y="0"
               x="0">1</tspan></text>
</g><g
           transform="matrix(0.72000003,0,0,0.72000003,343.44,226.08)"
           id="g456"><text
             id="text460"
             style="font-variant:normal;font-weight:normal;font-size:12px;font-family:Helvetica;-inkscape-font-specification:Helvetica;writing-mode:lr-tb;fill:#000000;fill-opacity:1;fill-rule:nonzero;stroke:none"
             transform="translate(0.65625,11)"><tspan
               id="tspan458"
               y="0"
               x="0">1</tspan></text>
</g><g
           transform="matrix(0.72000003,0,0,0.72000003,310.32001,211.68001)"
           id="g462"><text
             id="text466"
             style="font-variant:normal;font-weight:normal;font-size:12px;font-family:Helvetica;-inkscape-font-specification:Helvetica;writing-mode:lr-tb;fill:#000000;fill-opacity:1;fill-rule:nonzero;stroke:none"
             transform="translate(0.65625,11)"><tspan
               id="tspan464"
               y="0"
               x="0">n</tspan></text>
</g><g
           transform="matrix(0.72000003,0,0,0.72000003,365.04001,46.080002)"
           id="g468"><text
             id="text472"
             style="font-variant:normal;font-weight:normal;font-size:12px;font-family:Helvetica;-inkscape-font-specification:Helvetica;writing-mode:lr-tb;fill:#000000;fill-opacity:1;fill-rule:nonzero;stroke:none"
             transform="translate(0.65625,11)"><tspan
               id="tspan470"
               y="0"
               x="0">n</tspan></text>
</g><g
           transform="matrix(0.72000003,0,0,0.72000003,0.36000001,0.36000001)"
           id="g474"><path
             id="path476"
             style="fill:none;stroke:#000000;stroke-width:1;stroke-linecap:butt;stroke-linejoin:miter;stroke-miterlimit:10;stroke-dasharray:none;stroke-opacity:1"
             d="M 238.5,82 H 150 m 0,-4 h 88.5" /><path
             id="path478"
             style="fill:none;stroke:#000000;stroke-width:1;stroke-linecap:butt;stroke-linejoin:miter;stroke-miterlimit:10;stroke-dasharray:none;stroke-opacity:1"
             d="m 383,82 h -64.5 m 0,-4 H 383" /></g></g></g></g></svg>